<svg width="512" height="512" xmlns="http://www.w3.org/2000/svg">

 <g>
  <title>background</title>
  <rect fill="none" id="canvas_background" height="402" width="582" y="-1" x="-1"/>
 </g>
 <g>
  <title>Layer 1</title>
  <path id="svg_1" d="m273.5,504.2c-9.8,9.8 -25.7,9.8 -35.5,0l-230.6,-230.7c-9.8,-9.8 -9.8,-25.7 0,-35.5l230.6,-230.6c9.8,-9.8 25.7,-9.8 35.5,0l230.7,230.6c9.8,9.8 9.8,25.7 0,35.5l-230.7,230.7z" fill="#0065C9" clip-rule="evenodd" fill-rule="evenodd"/>
  <path id="svg_2" d="m495.6,285.5c-0.1,0 -0.1,0 -0.2,-0.1c0,0.1 0.1,0.1 0.2,0.1l-0.5,-0.2c-13.4,-5 -28.4,-8.1 -44.6,-12.2l-0.6,-0.2l-0.5,-0.1c-55.4,-13.8 -125.2,-21.8 -198.6,-21.8c-95.7,0 -175.2,12.1 -234.2,34.3l-0.6,0.2c0,0 0.1,0 0.1,0c0,0 0,0 0,0c0,0 0,0 0.1,0c31,8.7 29,-2.6 51.6,0.6c15.3,2.2 21,12 35.4,11.4c10.6,-0.9 9.6,-2.8 24.3,-11c17.2,-9 21.2,-1.8 16.8,11c-4.5,11.3 -13.2,18.4 -12.5,30.3c2.1,10 21.6,5.7 31.7,-0.3c8.9,-4.6 13.6,-7.1 27.4,-16c25.2,-16.6 33.9,-34.2 48.2,-35.3c16.8,-2.2 14.4,47.7 47.1,28.2c18,-10.2 20.9,-27.1 38.8,-25.7c20.4,1.6 20.8,20.5 39.6,10.4c19.4,-10.4 26.8,-18.4 59.5,3.6c19.5,13.1 36.6,-14.5 71.2,-7.1c0,-0.1 0.1,-0.1 0.3,-0.1z" fill="#F9F9FA" clip-rule="evenodd" fill-rule="evenodd"/>
  <g id="svg_3">
   <path id="svg_4" d="m206.1,184.6c-4,-4 -11.3,-5.9 -22.1,-5.9l-16.7,0l-44.4,0c-10.7,0 -18.1,1.9 -22.3,5.7c-4.1,3.8 -6.2,9.6 -6.2,17.3l0,56.7c7.9,-1.6 16,-3.2 24.3,-4.5l0,-44.3c0,-4.1 1,-7.2 3,-9.4c2,-2.2 5.9,-3.3 11.8,-3.3l6.9,0l0.1,53.7c8,-1.1 16.2,-2 24.5,-2.9l0,-50.8l7.7,0c6.4,0 10.5,1 12.3,3c1.8,2 2.8,5.3 2.8,9.7l0,36.1c7.9,-0.6 16,-1 24.2,-1.4l0,-42.5c0,-7.5 -1.9,-13.3 -5.9,-17.2z" fill="#F9F9FA"/>
   <path id="svg_5" d="m308.4,184.4c-4.1,-3.8 -11.6,-5.7 -22.3,-5.7l-35,0c-10.7,0 -18.1,1.9 -22.3,5.7c-4.1,3.8 -6.2,9.6 -6.2,17.3l0,34l0.1,8.1c7.9,-0.3 16,-0.4 24.1,-0.5l0,-15.7l36.6,0l6.9,0l0,16.2c8.1,0.3 16.2,0.6 24.1,1.1l0.1,-9.2l0,-34c0.1,-7.7 -2,-13.5 -6.1,-17.3zm-30.3,24.9l-31.2,0c0.1,-3.9 1.1,-6.9 3.1,-9.1c2,-2.2 5.9,-3.3 11.8,-3.3l13.7,0c5.9,0 9.8,1.1 11.8,3.3c2,2.2 3,5.3 3.1,9.1l-12.3,0z" fill="#F9F9FA"/>
   <path id="svg_6" d="m411.2,184.6c-4,-4 -11.3,-5.9 -22.1,-5.9l-35.4,0c-10.7,0 -18.1,1.9 -22.3,5.7c-4.1,3.8 -6.2,9.6 -6.2,17.3l0,43.9c8.2,0.6 16.3,1.2 24.3,2l0,-38c0,-4.1 1,-7.2 3,-9.4c2,-2.2 5.9,-3.3 11.8,-3.3l13.6,0c6.4,0 10.5,1 12.3,3c1.8,2 2.8,5.3 2.8,9.7l0,43.4c8.3,1.2 16.3,2.6 24.2,4l0,-55.3c0,-7.4 -2,-13.2 -6,-17.1z" fill="#F9F9FA"/>
  </g>
 </g>
</svg>